<svg width="17" height="18" viewBox="0 0 17 18" fill="none" xmlns="http://www.w3.org/2000/svg">
<path fill-rule="evenodd" clip-rule="evenodd" d="M8.31958 3.17647H2.00001C0.895434 3.17647 0 4.12457 0 5.29412V15.8824C0 17.0519 0.895435 18 2.00001 18H13.0001C14.1046 18 15.0001 17.0519 15.0001 15.8824V8.13217L11.0863 12.2762C10.7373 12.6457 10.2928 12.8976 9.80883 13.0001L7.1277 13.5678C5.37839 13.9383 3.83608 12.3053 4.18594 10.4531L4.72217 7.61423C4.81896 7.10178 5.05685 6.63114 5.40585 6.26162L8.31958 3.17647Z" fill="#F3FAF9"/>
<path fill-rule="evenodd" clip-rule="evenodd" d="M16.8464 1.31839C16.745 1.05932 16.5964 0.823941 16.4091 0.625707C16.2218 0.427342 15.9995 0.269983 15.7549 0.162621C15.5102 0.0552597 15.2479 0 14.983 0C14.7182 0 14.4559 0.0552597 14.2112 0.162621C13.9666 0.269983 13.7443 0.427342 13.557 0.625707L13.0112 1.2037L15.8632 4.22346L16.4091 3.64547C16.5964 3.44724 16.745 3.21186 16.8464 2.95279C16.9478 2.69372 17 2.41603 17 2.13559C17 1.85515 16.9478 1.57746 16.8464 1.31839ZM14.449 5.72087L11.5969 2.70111L6.82006 7.75901C6.75026 7.83292 6.70268 7.92704 6.68332 8.02953L6.1471 10.8684C6.07713 11.2388 6.38559 11.5654 6.73545 11.4913L9.41657 10.9236C9.51337 10.9031 9.60227 10.8527 9.67207 10.7788L14.449 5.72087Z" fill="#F3FAF9"/>
</svg>
